<?xml version="1.0" encoding="UTF-8"?>
<!DOCTYPE svg PUBLIC "-//W3C//DTD SVG 1.1//EN" "http://www.w3.org/Graphics/SVG/1.1/DTD/svg11.dtd">
<svg xmlns="http://www.w3.org/2000/svg" version="1.1" width="120px" height="120px" style="shape-rendering:geometricPrecision; text-rendering:geometricPrecision; image-rendering:optimizeQuality; fill-rule:evenodd; clip-rule:evenodd" xmlns:xlink="http://www.w3.org/1999/xlink">
<g><path style="opacity:1" fill="#060606" d="M 55.5,1.5 C 61.8977,0.0526478 66.731,2.05265 70,7.5C 70.3631,11.866 70.3631,16.1994 70,20.5C 79.8074,25.6391 86.8074,33.3058 91,43.5C 91.6667,47.1667 91.6667,50.8333 91,54.5C 88.6822,59.1356 86.3489,63.8022 84,68.5C 83.1827,73.1446 83.6827,77.6446 85.5,82C 83.9833,85.0157 81.65,87.1823 78.5,88.5C 77.6143,89.325 77.281,90.325 77.5,91.5C 84.7999,92.2266 92.1333,92.7266 99.5,93C 114.335,96.9817 116.001,103.982 104.5,114C 89.2119,112.378 74.2119,109.211 59.5,104.5C 45.7653,109.283 31.5986,112.617 17,114.5C 11.4394,112.092 8.27277,107.759 7.5,101.5C 8.26329,97.569 10.5966,95.069 14.5,94C 22.4489,92.8445 30.4489,92.1778 38.5,92C 40.0441,91.7104 41.3774,91.0437 42.5,90C 38.8537,88.0181 35.8537,85.3515 33.5,82C 34.8817,78.9795 35.8817,75.8128 36.5,72.5C 33.6695,66.1717 30.8361,59.8384 28,53.5C 26.7337,47.405 27.7337,41.7384 31,36.5C 36.4546,30.0389 42.788,24.7055 50,20.5C 48.7732,16.3211 48.4399,11.9877 49,7.5C 50.4936,4.68648 52.6603,2.68648 55.5,1.5 Z"/></g>
<g><path style="opacity:1" fill="#eeeeee" d="M 57.5,7.5 C 63.4877,7.66395 64.821,10.164 61.5,15C 54.193,15.5405 52.8596,13.0405 57.5,7.5 Z"/></g>
<g><path style="opacity:1" fill="#f8f8f8" d="M 54.5,24.5 C 68.3772,24.8562 78.5439,31.1896 85,43.5C 86.9769,56.1948 81.4769,62.3615 68.5,62C 58.6789,63.1149 49.0123,62.4483 39.5,60C 32.9967,54.1655 31.8301,47.3322 36,39.5C 41.1473,33.1803 47.314,28.1803 54.5,24.5 Z"/></g>
<g><path style="opacity:1" fill="#0b0b0b" d="M 58.5,32.5 C 61.6486,33.1603 63.1486,35.1603 63,38.5C 69,42.1667 69,45.8333 63,49.5C 62.51,50.7932 62.3433,52.1266 62.5,53.5C 60.8008,53.6602 59.1341,53.4935 57.5,53C 55.9929,49.503 53.9929,46.503 51.5,44C 51.6667,43.1667 51.8333,42.3333 52,41.5C 53.3333,40.8333 54.6667,40.1667 56,39.5C 56.1534,36.8494 56.9867,34.5161 58.5,32.5 Z"/></g>
<g><path style="opacity:1" fill="#ededed" d="M 44.5,67.5 C 53.8393,67.3335 63.1726,67.5002 72.5,68C 77.1814,69.0008 77.5148,70.6674 73.5,73C 63.1328,73.7603 52.7994,73.5937 42.5,72.5C 42.3915,70.4862 43.0582,68.8195 44.5,67.5 Z"/></g>
<g><path style="opacity:1" fill="#f4f4f4" d="M 43.5,78.5 C 53.5056,78.3335 63.5056,78.5002 73.5,79C 75.6193,79.0976 77.286,79.9309 78.5,81.5C 78.2907,82.086 77.9574,82.586 77.5,83C 66.5,83.6667 55.5,83.6667 44.5,83C 39.714,82.1042 39.3807,80.6042 43.5,78.5 Z"/></g>
<g><path style="opacity:1" fill="#f0f0f0" d="M 56.5,89.5 C 59.2706,89.4207 61.9373,89.9207 64.5,91C 75.1246,96.5515 86.458,99.5515 98.5,100C 100.555,100.687 102.221,101.854 103.5,103.5C 102.91,104.799 101.91,105.632 100.5,106C 85.9554,106.66 72.2888,103.493 59.5,96.5C 46.2666,104.38 31.9333,107.213 16.5,105C 14.987,102.546 15.6537,100.879 18.5,100C 27.5582,99.1206 36.5582,97.7873 45.5,96C 49.8583,94.8277 53.525,92.6611 56.5,89.5 Z"/></g>
</svg>
