<?xml version="1.0" encoding="UTF-8"?>
<!DOCTYPE svg PUBLIC "-//W3C//DTD SVG 1.1//EN" "http://www.w3.org/Graphics/SVG/1.1/DTD/svg11.dtd">
<svg xmlns="http://www.w3.org/2000/svg" version="1.1" width="120px" height="120px" style="shape-rendering:geometricPrecision; text-rendering:geometricPrecision; image-rendering:optimizeQuality; fill-rule:evenodd; clip-rule:evenodd" xmlns:xlink="http://www.w3.org/1999/xlink">
<g><path style="opacity:1" fill="#070707" d="M 52.5,11.5 C 53.8734,11.3433 55.2068,11.51 56.5,12C 59.7828,15.397 62.4495,19.2303 64.5,23.5C 78.8683,26.7002 89.7016,34.7002 97,47.5C 101.599,55.9631 104.599,64.9631 106,74.5C 107.471,86.1232 108.304,97.7899 108.5,109.5C 84.8239,109.833 61.1573,109.5 37.5,108.5C 40.2816,97.2701 45.4483,87.2701 53,78.5C 54.7411,75.6907 55.9078,72.6907 56.5,69.5C 55.1266,69.3433 53.7932,69.51 52.5,70C 46.3333,73.5 41.5,78.3333 38,84.5C 35.9065,87.1026 33.4065,89.1026 30.5,90.5C 27.6465,89.8094 25.1465,88.4761 23,86.5C 17.3417,86.4838 13.0083,83.8172 10,78.5C 9.80825,75.0533 10.4749,71.72 12,68.5C 17.6097,55.6139 22.943,42.6139 28,29.5C 29.2712,24.2461 29.7712,18.9127 29.5,13.5C 35.2152,13.9042 40.7152,15.2375 46,17.5C 49.2405,16.7053 51.4072,14.7053 52.5,11.5 Z"/></g>
<g><path style="opacity:1" fill="#ededed" d="M 36.5,19.5 C 37.9953,19.4148 38.9953,20.0815 39.5,21.5C 38.6798,23.1112 37.3464,23.7778 35.5,23.5C 35.4326,22.0413 35.7659,20.7079 36.5,19.5 Z"/></g>
<g><path style="opacity:1" fill="#fbfbfb" d="M 52.5,20.5 C 53.8221,20.33 54.9887,20.6634 56,21.5C 56.9417,24.4429 58.1084,27.2762 59.5,30C 67.7113,30.2923 75.0446,32.9589 81.5,38C 97.0516,56.6925 103.385,78.1925 100.5,102.5C 82.9231,102.825 65.4231,102.492 48,101.5C 47.3333,100.167 47.3333,98.8333 48,97.5C 53.9877,89.1914 58.6544,80.1914 62,70.5C 63.5012,62.496 65.0012,54.496 66.5,46.5C 66.1667,45.8333 65.8333,45.1667 65.5,44.5C 60.7955,49.236 57.6289,54.9027 56,61.5C 46.4424,68.0515 37.7757,75.7181 30,84.5C 29.7978,82.7444 29.2978,81.0777 28.5,79.5C 15.9219,83.071 12.4219,78.7377 18,66.5C 22.7626,55.2056 28.096,44.2056 34,33.5C 35.5,32 37,30.5 38.5,29C 42.9838,27.2571 47.3171,25.2571 51.5,23C 52.2524,22.3292 52.5858,21.4959 52.5,20.5 Z"/></g>
<g><path style="opacity:1" fill="#101010" d="M 37.5,38.5 C 42.732,37.9971 44.232,39.9971 42,44.5C 39.1956,47.7639 35.6956,49.2639 31.5,49C 30.3281,47.1316 30.4947,45.2983 32,43.5C 33.8119,41.6997 35.6452,40.0331 37.5,38.5 Z"/></g>
<g><path style="opacity:1" fill="#0c0c0c" d="M 18.5,70.5 C 19.8333,70.5 21.1667,70.5 22.5,70.5C 23.467,74.8514 21.8004,77.1847 17.5,77.5C 17.298,75.0504 17.6314,72.717 18.5,70.5 Z"/></g>
</svg>
