<?xml version="1.0" encoding="UTF-8"?>
<!DOCTYPE svg PUBLIC "-//W3C//DTD SVG 1.1//EN" "http://www.w3.org/Graphics/SVG/1.1/DTD/svg11.dtd">
<svg xmlns="http://www.w3.org/2000/svg" version="1.1" width="120px" height="120px" style="shape-rendering:geometricPrecision; text-rendering:geometricPrecision; image-rendering:optimizeQuality; fill-rule:evenodd; clip-rule:evenodd" xmlns:xlink="http://www.w3.org/1999/xlink">
<g><path style="opacity:1" fill="#050505" d="M 53.5,10.5 C 69.6868,9.18875 76.1868,16.5221 73,32.5C 83.7967,42.0742 84.2967,52.2408 74.5,63C 85.2942,69.4773 91.7942,78.9773 94,91.5C 94.977,96.7926 95.477,102.126 95.5,107.5C 72.4772,107.845 49.4772,107.345 26.5,106C 25.5838,105.626 24.7504,105.126 24,104.5C 22.6104,86.7861 29.1104,72.9527 43.5,63C 37.7682,56.4361 35.9349,48.9361 38,40.5C 41.038,37.7974 43.7046,34.7974 46,31.5C 43.4697,22.5869 45.9697,15.5869 53.5,10.5 Z"/></g>
<g><path style="opacity:1" fill="#fbfbfb" d="M 76.5,100.5 C 60.8333,100.5 45.1667,100.5 29.5,100.5C 29.5,99.5 29.5,98.5 29.5,97.5C 29.8169,91.0483 31.6503,85.0483 35,79.5C 40.4358,73.5567 46.2691,68.2234 52.5,63.5C 50.9957,59.4856 48.4957,56.1522 45,53.5C 44.3333,50.1667 44.3333,46.8333 45,43.5C 47.2737,39.2275 50.2737,35.5609 54,32.5C 53.3483,27.8777 53.0149,23.2111 53,18.5C 56.6259,14.8636 60.6259,14.5302 65,17.5C 65.401,22.6013 65.0677,27.6013 64,32.5C 68.0869,35.916 71.4203,39.916 74,44.5C 74.6667,46.8333 74.6667,49.1667 74,51.5C 72.0394,54.4628 69.706,57.1294 67,59.5C 66.3333,61.1667 66.3333,62.8333 67,64.5C 78.5266,71.8672 86.0266,82.2005 89.5,95.5C 89.0692,97.7661 87.7358,99.2661 85.5,100C 82.5184,100.498 79.5184,100.665 76.5,100.5 Z"/></g>
<g><path style="opacity:1" fill="#404040" d="M 29.5,97.5 C 29.5,98.5 29.5,99.5 29.5,100.5C 45.1667,100.5 60.8333,100.5 76.5,100.5C 60.6754,101.496 44.6754,101.83 28.5,101.5C 28.2322,99.901 28.5655,98.5676 29.5,97.5 Z"/></g>
</svg>
