<?xml version="1.0" encoding="UTF-8"?>
<!DOCTYPE svg PUBLIC "-//W3C//DTD SVG 1.1//EN" "http://www.w3.org/Graphics/SVG/1.1/DTD/svg11.dtd">
<svg xmlns="http://www.w3.org/2000/svg" version="1.1" width="120px" height="120px" style="shape-rendering:geometricPrecision; text-rendering:geometricPrecision; image-rendering:optimizeQuality; fill-rule:evenodd; clip-rule:evenodd" xmlns:xlink="http://www.w3.org/1999/xlink">
<g><path style="opacity:1" fill="#060606" d="M 57.5,6.5 C 62.7918,7.61474 66.4585,10.7814 68.5,16C 66.9668,22.3885 66.3001,28.8885 66.5,35.5C 66.3605,59.6575 69.5271,60.3241 76,37.5C 76.9719,30.8654 77.6386,24.1987 78,17.5C 83.4811,9.5769 89.1477,9.5769 95,17.5C 95.1667,18.3333 95.3333,19.1667 95.5,20C 93.4761,24.5485 91.3094,29.0485 89,33.5C 87.3628,40.3553 87.1961,47.1887 88.5,54C 91.0323,54.1668 92.8656,53.0001 94,50.5C 97.6989,43.6532 99.6989,36.3199 100,28.5C 101.898,24.239 105.064,22.0723 109.5,22C 112.731,24.7273 115.397,27.894 117.5,31.5C 115.014,35.8012 112.514,40.1345 110,44.5C 107.793,53.203 105.46,61.8697 103,70.5C 100.121,76.7051 96.4545,82.3718 92,87.5C 91.3333,89.8333 91.3333,92.1667 92,94.5C 94.4694,98.8942 95.4694,103.561 95,108.5C 90.996,111.297 86.496,112.797 81.5,113C 63.4144,114.12 45.4144,113.453 27.5,111C 24.9533,110.564 23.62,109.064 23.5,106.5C 25.4241,100.251 26.5908,93.918 27,87.5C 22.5859,82.3441 18.9193,76.6775 16,70.5C 13.3333,61.1667 10.6667,51.8333 8,42.5C 6.33333,40.1667 4.66667,37.8333 3,35.5C 1.53654,29.2601 3.70321,24.7601 9.5,22C 13.5594,22.0149 16.7261,23.8482 19,27.5C 18.0978,38.3059 21.5978,47.3059 29.5,54.5C 30.9226,52.223 31.5893,49.723 31.5,47C 31.0411,42.8284 30.5411,38.6618 30,34.5C 27.8487,29.675 25.682,24.8417 23.5,20C 25.8012,12.8494 30.4678,10.5161 37.5,13C 39.0488,14.214 40.2155,15.714 41,17.5C 40.3846,30.3691 43.2179,42.3691 49.5,53.5C 51.0691,52.286 51.9024,50.6193 52,48.5C 53.0152,37.4053 52.5152,26.4053 50.5,15.5C 51.7407,11.5992 54.0741,8.59917 57.5,6.5 Z"/></g>
<g><path style="opacity:1" fill="#f2f2f2" d="M 57.5,11.5 C 62.2624,12.0925 63.5957,14.5925 61.5,19C 59.8876,19.7203 58.3876,19.5536 57,18.5C 56.2967,16.0709 56.4634,13.7375 57.5,11.5 Z"/></g>
<g><path style="opacity:1" fill="#efefef" d="M 30.5,16.5 C 31.9778,16.238 33.3112,16.5713 34.5,17.5C 35.3742,19.7466 35.7076,22.0799 35.5,24.5C 29.584,24.7881 27.9174,22.1214 30.5,16.5 Z"/></g>
<g><path style="opacity:1" fill="#e2e2e2" d="M 84.5,16.5 C 88.8297,17.3232 90.163,19.8232 88.5,24C 82.2016,24.4954 80.8682,21.9954 84.5,16.5 Z"/></g>
<g><path style="opacity:1" fill="#dcdcdc" d="M 8.5,27.5 C 14.7349,27.2228 16.0682,29.7228 12.5,35C 11.365,35.7494 10.365,35.5827 9.5,34.5C 8.62578,32.2534 8.29245,29.9201 8.5,27.5 Z"/></g>
<g><path style="opacity:1" fill="#e7e7e7" d="M 105.5,27.5 C 110.068,27.0826 111.568,29.0826 110,33.5C 107.81,36.2486 106.143,35.9153 105,32.5C 104.36,30.735 104.527,29.0683 105.5,27.5 Z"/></g>
<g><path style="opacity:1" fill="#f3f3f3" d="M 67.5,62.5 C 62.5,63.1667 57.5,63.8333 52.5,64.5C 47.804,64.6706 43.1373,65.1706 38.5,66C 33.1792,67.7814 27.8458,69.1148 22.5,70C 19.2605,64.2135 17.7605,58.0468 18,51.5C 22.6814,56.3485 27.5148,61.0152 32.5,65.5C 34.0691,64.286 34.9024,62.6193 35,60.5C 35.3333,56.5 35.6667,52.5 36,48.5C 36.1962,46.7139 37.0295,45.3805 38.5,44.5C 41.0546,49.2646 43.8879,53.9313 47,58.5C 50.9201,62.3785 53.5868,61.3785 55,55.5C 56.4696,50.7574 58.1363,46.0907 60,41.5C 61.8109,48.7673 64.3109,55.7673 67.5,62.5 Z"/></g>
<g><path style="opacity:1" fill="#f1f1f1" d="M 69.5,64.5 C 69.1667,63.8333 68.8333,63.1667 68.5,62.5C 73.9957,55.5221 78.4957,47.8555 82,39.5C 82.5601,48.2535 83.7267,56.9202 85.5,65.5C 91.1147,61.3882 96.2813,56.7215 101,51.5C 100.791,57.6429 99.6248,63.6429 97.5,69.5C 88.2825,67.4342 78.9491,65.7675 69.5,64.5 Z"/></g>
<g><path style="opacity:1" fill="#5a5a5a" d="M 67.5,62.5 C 67.8333,62.5 68.1667,62.5 68.5,62.5C 68.8333,63.1667 69.1667,63.8333 69.5,64.5C 63.8333,64.5 58.1667,64.5 52.5,64.5C 57.5,63.8333 62.5,63.1667 67.5,62.5 Z"/></g>
<g><path style="opacity:1" fill="#eeeeee" d="M 43.5,70.5 C 53.8387,70.3335 64.172,70.5002 74.5,71C 78.2106,71.8443 81.8772,72.8443 85.5,74C 85.9574,74.414 86.2907,74.914 86.5,75.5C 84.5767,76.3078 82.5767,76.8078 80.5,77C 65.6527,77.7579 50.8194,77.5913 36,76.5C 34.5,76.1667 33,75.8333 31.5,75.5C 31.7093,74.914 32.0426,74.414 32.5,74C 36.1613,72.4075 39.828,71.2408 43.5,70.5 Z"/></g>
<g><path style="opacity:1" fill="#f6f6f6" d="M 48.5,82.5 C 59.2032,82.2625 69.8699,82.7625 80.5,84C 81.7659,84.3095 82.9326,84.8095 84,85.5C 84.4974,88.146 84.6641,90.8127 84.5,93.5C 67.8333,93.5 51.1667,93.5 34.5,93.5C 34.1826,90.4281 34.5159,87.4281 35.5,84.5C 39.9669,83.8864 44.3002,83.2197 48.5,82.5 Z"/></g>
<g><path style="opacity:1" fill="#f6f6f6" d="M 33.5,100.5 C 50.857,100.238 68.1903,100.571 85.5,101.5C 85.6399,103.124 84.9733,104.29 83.5,105C 68.5448,107.785 53.5448,108.118 38.5,106C 35.2277,105.563 33.561,103.73 33.5,100.5 Z"/></g>
</svg>
