<?xml version="1.0" encoding="UTF-8"?>
<!DOCTYPE svg PUBLIC "-//W3C//DTD SVG 1.1//EN" "http://www.w3.org/Graphics/SVG/1.1/DTD/svg11.dtd">
<svg xmlns="http://www.w3.org/2000/svg" version="1.1" width="120px" height="120px" style="shape-rendering:geometricPrecision; text-rendering:geometricPrecision; image-rendering:optimizeQuality; fill-rule:evenodd; clip-rule:evenodd" xmlns:xlink="http://www.w3.org/1999/xlink">
<g><path style="opacity:1" fill="#040404" d="M 27.5,10.5 C 30.8499,10.335 34.1832,10.5017 37.5,11C 40.615,12.4579 43.4484,14.2912 46,16.5C 48.0709,15.2247 49.5709,13.3914 50.5,11C 56.8333,10.3333 63.1667,10.3333 69.5,11C 70.4601,12.4194 71.2935,13.9194 72,15.5C 72.7247,16.0585 73.5581,16.3918 74.5,16.5C 76.7128,14.6624 79.0461,12.8291 81.5,11C 96,8.16667 101.833,14 99,28.5C 94.7002,33.8012 90.0336,38.8012 85,43.5C 84.3333,55.1667 84.3333,66.8333 85,78.5C 90.0855,83.5171 95.0855,88.5171 100,93.5C 101.524,98.0956 101.691,102.762 100.5,107.5C 73.5,107.5 46.5,107.5 19.5,107.5C 19.6355,104.449 19.3022,101.449 18.5,98.5C 18.8988,96.8034 19.3988,95.1368 20,93.5C 24.973,88.527 29.973,83.527 35,78.5C 35.6667,66.8333 35.6667,55.1667 35,43.5C 29.9664,38.8012 25.2998,33.8012 21,28.5C 20.1902,23.7426 20.5236,19.0759 22,14.5C 23.4998,12.5313 25.3331,11.198 27.5,10.5 Z"/></g>
<g><path style="opacity:1" fill="#f6f6f6" d="M 29.5,16.5 C 35.731,15.2301 39.3976,17.7301 40.5,24C 46.5672,25.8333 51.2339,24.1666 54.5,19C 58.1667,18.3333 61.8333,18.3333 65.5,19C 68.6719,24.2865 73.3386,25.9531 79.5,24C 80.6919,22.0876 81.6919,20.0876 82.5,18C 92.4147,15.9827 95.5813,19.816 92,29.5C 89.4634,32.372 86.6301,34.872 83.5,37C 69.5472,38.5752 55.5472,38.9086 41.5,38C 31.2836,35.8083 26.4503,29.6417 27,19.5C 27.6979,18.3094 28.5313,17.3094 29.5,16.5 Z"/></g>
<g><path style="opacity:1" fill="#fcfcfc" d="M 41.5,43.5 C 53.8333,43.5 66.1667,43.5 78.5,43.5C 78.5,53.5 78.5,63.5 78.5,73.5C 66.1667,73.5 53.8333,73.5 41.5,73.5C 41.5,63.5 41.5,53.5 41.5,43.5 Z"/></g>
<g><path style="opacity:1" fill="#fcfcfc" d="M 42.5,78.5 C 55.2278,78.08 67.8944,78.58 80.5,80C 83.1667,82.6667 85.8333,85.3333 88.5,88C 69.5,88.6667 50.5,88.6667 31.5,88C 34.7922,84.1938 38.4589,81.0272 42.5,78.5 Z"/></g>
<g><path style="opacity:1" fill="#ededed" d="M 37.5,94.5 C 54.5033,94.3334 71.5033,94.5001 88.5,95C 91.5574,94.8931 93.8907,96.0598 95.5,98.5C 95.0233,99.4776 94.3567,100.311 93.5,101C 71.1667,101.667 48.8333,101.667 26.5,101C 25.1667,99.3333 25.1667,97.6667 26.5,96C 30.3563,95.8227 34.023,95.3227 37.5,94.5 Z"/></g>
</svg>
