<?xml version="1.0" encoding="UTF-8"?>
<!DOCTYPE svg PUBLIC "-//W3C//DTD SVG 1.1//EN" "http://www.w3.org/Graphics/SVG/1.1/DTD/svg11.dtd">
<svg xmlns="http://www.w3.org/2000/svg" version="1.1" width="120px" height="120px" style="shape-rendering:geometricPrecision; text-rendering:geometricPrecision; image-rendering:optimizeQuality; fill-rule:evenodd; clip-rule:evenodd" xmlns:xlink="http://www.w3.org/1999/xlink">
<g><path style="opacity:1" fill="#040404" d="M 55.5,0.5 C 68.8213,0.646633 73.3213,6.97997 69,19.5C 82.047,24.9203 89.8803,34.5869 92.5,48.5C 91.0449,55.7445 88.2116,62.4111 84,68.5C 84.0731,74.1624 84.0731,79.829 84,85.5C 81.955,86.8869 79.7883,88.0536 77.5,89C 79.0261,90.8871 81.0261,91.8871 83.5,92C 89.5,92.3333 95.5,92.6667 101.5,93C 108.719,94.8551 111.886,99.3551 111,106.5C 108.667,110.167 105.667,113.167 102,115.5C 100.352,114.283 98.519,113.45 96.5,113C 83.6214,111.864 71.2881,108.697 59.5,103.5C 56.2845,105.204 52.9512,106.704 49.5,108C 37.8838,110.658 26.2171,112.658 14.5,114C 4.08326,104.553 5.41659,97.5531 18.5,93C 24.1667,92.6667 29.8333,92.3333 35.5,92C 37.7801,91.7674 39.7801,90.934 41.5,89.5C 39.4344,88.0937 37.2677,86.7604 35,85.5C 34.4653,80.9052 34.9653,76.4052 36.5,72C 33.8028,66.1055 30.9695,60.2721 28,54.5C 27.0812,38.2175 34.2479,26.8842 49.5,20.5C 49.8333,19.8333 50.1667,19.1667 50.5,18.5C 46.6644,10.7419 48.3311,4.74189 55.5,0.5 Z"/></g>
<g><path style="opacity:1" fill="#f5f5f5" d="M 57.5,8.5 C 59.1667,8.5 60.8333,8.5 62.5,8.5C 63.5081,13.6673 61.6748,15.334 57,13.5C 56.3603,11.735 56.5269,10.0683 57.5,8.5 Z"/></g>
<g><path style="opacity:1" fill="#f6f6f6" d="M 57.5,33.5 C 59.288,33.2148 60.9547,33.5481 62.5,34.5C 63.7428,37.7182 65.4094,40.5515 67.5,43C 67.401,45.5477 66.0677,47.0477 63.5,47.5C 62.8108,49.444 62.3108,51.444 62,53.5C 60.3333,54.8333 58.6667,54.8333 57,53.5C 56.6667,51.5 56.3333,49.5 56,47.5C 54.9326,46.8095 53.7659,46.3095 52.5,46C 51.9186,45.1074 51.5852,44.1074 51.5,43C 54.0226,40.2805 56.0226,37.1139 57.5,33.5 Z"/></g>
<g><path style="opacity:1" fill="#f7f7f7" d="M 43.5,63.5 C 53.8387,63.3335 64.172,63.5002 74.5,64C 75.8146,65.3946 75.4812,66.3946 73.5,67C 64.1667,67.6667 54.8333,67.6667 45.5,67C 44.0267,66.2904 43.3601,65.1238 43.5,63.5 Z"/></g>
<g><path style="opacity:1" fill="#f7f7f7" d="M 44.5,73.5 C 54.5056,73.3335 64.5056,73.5002 74.5,74C 75.8146,75.3946 75.4812,76.3946 73.5,77C 63.8333,77.6667 54.1667,77.6667 44.5,77C 43.3157,75.8545 43.3157,74.6879 44.5,73.5 Z"/></g>
</svg>
