<?xml version="1.0" encoding="UTF-8"?>
<!DOCTYPE svg PUBLIC "-//W3C//DTD SVG 1.1//EN" "http://www.w3.org/Graphics/SVG/1.1/DTD/svg11.dtd">
<svg xmlns="http://www.w3.org/2000/svg" version="1.1" width="120px" height="120px" style="shape-rendering:geometricPrecision; text-rendering:geometricPrecision; image-rendering:optimizeQuality; fill-rule:evenodd; clip-rule:evenodd" xmlns:xlink="http://www.w3.org/1999/xlink">
<g><path style="opacity:1" fill="#010101" d="M 51.5,11.5 C 53.679,11.84 55.5123,12.84 57,14.5C 58.2467,17.3286 59.7467,19.9952 61.5,22.5C 75.1701,25.3431 85.6701,32.6765 93,44.5C 102.966,64.2824 107.132,85.2824 105.5,107.5C 81.8333,107.5 58.1667,107.5 34.5,107.5C 35.2239,104.157 36.0572,100.824 37,97.5C 41.6667,90.1667 46.3333,82.8333 51,75.5C 52.4114,73.3496 53.2447,71.0163 53.5,68.5C 50.7743,68.2639 48.441,69.0972 46.5,71C 41.2791,74.9538 37.1124,79.7871 34,85.5C 32.561,87.448 30.7277,88.7814 28.5,89.5C 22.5189,87.4379 16.5189,85.2712 10.5,83C 7.98155,81.1297 6.64822,78.6297 6.5,75.5C 11.8367,60.326 17.67,45.326 24,30.5C 24.9983,24.8435 25.8316,19.1769 26.5,13.5C 32.0661,13.256 37.5661,14.256 43,16.5C 45.9928,14.986 48.8261,13.3193 51.5,11.5 Z"/></g>
<g><path style="opacity:1" fill="#f1f1f1" d="M 57.5,31.5 C 62.0672,31.7438 66.4006,32.9104 70.5,35C 90.0805,52.0949 98.4138,73.4282 95.5,99C 93.892,99.658 92.7253,99.158 92,97.5C 91.4437,74.132 82.6104,54.632 65.5,39C 63.3295,37.4138 60.9962,36.0804 58.5,35C 57.6634,33.9887 57.33,32.8221 57.5,31.5 Z"/></g>
<g><path style="opacity:1" fill="#f1f1f1" d="M 31.5,38.5 C 33.5273,38.3379 35.5273,38.5045 37.5,39C 38.772,41.0445 38.4386,42.8778 36.5,44.5C 34.72,46.4438 32.5533,47.7771 30,48.5C 28.0532,47.9561 27.2199,46.6228 27.5,44.5C 27.6695,41.6736 29.0029,39.6736 31.5,38.5 Z"/></g>
<g><path style="opacity:1" fill="#e7e7e7" d="M 12.5,71.5 C 16.4153,73.1983 16.4153,75.1983 12.5,77.5C 10.0006,75.6045 10.0006,73.6045 12.5,71.5 Z"/></g>
</svg>
