<?xml version="1.0" encoding="UTF-8"?>
<!DOCTYPE svg PUBLIC "-//W3C//DTD SVG 1.1//EN" "http://www.w3.org/Graphics/SVG/1.1/DTD/svg11.dtd">
<svg xmlns="http://www.w3.org/2000/svg" version="1.1" width="120px" height="120px" style="shape-rendering:geometricPrecision; text-rendering:geometricPrecision; image-rendering:optimizeQuality; fill-rule:evenodd; clip-rule:evenodd" xmlns:xlink="http://www.w3.org/1999/xlink">
<g><path style="opacity:1" fill="#000000" d="M 54.5,11.5 C 70.3918,9.89309 76.5584,16.8931 73,32.5C 84.7891,42.2174 85.6225,52.8841 75.5,64.5C 87.2456,70.9685 93.7456,80.9685 95,94.5C 95.4988,98.4862 95.6655,102.486 95.5,106.5C 71.5326,107.471 47.5326,107.804 23.5,107.5C 23.3787,95.1969 26.5454,83.8636 33,73.5C 36.8333,70.3333 40.6667,67.1667 44.5,64C 42.4841,60.6565 40.4841,57.3232 38.5,54C 37.4641,50.8792 37.2974,47.7125 38,44.5C 41.3623,39.9702 44.5289,35.3035 47.5,30.5C 44.5745,22.0476 46.9079,15.7143 54.5,11.5 Z"/></g>
</svg>
