<?xml version="1.0" encoding="UTF-8"?>
<!DOCTYPE svg PUBLIC "-//W3C//DTD SVG 1.1//EN" "http://www.w3.org/Graphics/SVG/1.1/DTD/svg11.dtd">
<svg xmlns="http://www.w3.org/2000/svg" version="1.1" width="122px" height="120px" style="shape-rendering:geometricPrecision; text-rendering:geometricPrecision; image-rendering:optimizeQuality; fill-rule:evenodd; clip-rule:evenodd" xmlns:xlink="http://www.w3.org/1999/xlink">
<g><path style="opacity:1" fill="#020202" d="M 58.5,6.5 C 63.7918,7.61474 67.4585,10.7814 69.5,16C 66.0822,28.4217 65.7488,40.9217 68.5,53.5C 71.0495,53.4392 72.5495,52.1059 73,49.5C 77.0084,39.4717 78.675,29.1383 78,18.5C 82.9768,10.0946 88.6435,9.42789 95,16.5C 95.6667,18.8333 95.6667,21.1667 95,23.5C 88.5036,33.1841 87.0036,43.5175 90.5,54.5C 93.1897,52.644 95.3563,50.3106 97,47.5C 98.6718,40.1086 100.505,32.7752 102.5,25.5C 107.22,22.6518 111.72,22.9852 116,26.5C 119.06,33.0962 117.393,38.0962 111,41.5C 109.138,53.1495 106.138,64.4829 102,75.5C 99,79.5 96,83.5 93,87.5C 92.3333,89.8333 92.3333,92.1667 93,94.5C 94.8539,98.7077 95.8539,103.041 96,107.5C 91.453,110.933 86.2863,112.766 80.5,113C 67.8333,113.667 55.1667,113.667 42.5,113C 36.0978,112.778 30.2645,110.945 25,107.5C 26.2084,100.871 27.2084,94.2046 28,87.5C 23.8395,82.5144 20.1728,77.181 17,71.5C 13.9041,62.0214 11.5708,52.3548 10,42.5C 8.80661,40.3949 7.13995,38.7282 5,37.5C 1.61141,32.3057 2.44475,27.8057 7.5,24C 10.5,23.3333 13.5,23.3333 16.5,24C 18.4875,25.3189 19.6541,27.1523 20,29.5C 20.3889,36.5126 22.0556,43.1793 25,49.5C 26.6837,51.3513 28.5171,53.018 30.5,54.5C 31.9226,52.223 32.5893,49.723 32.5,47C 32.5361,37.2805 29.8694,28.4472 24.5,20.5C 27.4693,11.6002 32.9693,9.60016 41,14.5C 40.9099,29.0617 44.2433,42.7284 51,55.5C 52.0438,53.2852 52.7105,50.9519 53,48.5C 54.0152,37.4053 53.5152,26.4053 51.5,15.5C 52.7407,11.5992 55.0741,8.59917 58.5,6.5 Z"/></g>
<g><path style="opacity:1" fill="#e3e3e3" d="M 58.5,12.5 C 63.3276,12.3852 64.6609,14.5519 62.5,19C 57.5705,19.427 56.2372,17.2604 58.5,12.5 Z"/></g>
<g><path style="opacity:1" fill="#d9d9d9" d="M 31.5,17.5 C 37.0159,17.4734 38.3492,19.64 35.5,24C 30.5705,24.427 29.2372,22.2604 31.5,17.5 Z"/></g>
<g><path style="opacity:1" fill="#e6e6e6" d="M 85.5,17.5 C 90.4928,17.997 91.4928,20.1637 88.5,24C 83.3823,23.8242 82.3823,21.6576 85.5,17.5 Z"/></g>
<g><path style="opacity:1" fill="#e1e1e1" d="M 9.5,27.5 C 16.448,27.9329 17.2813,30.5996 12,35.5C 9.79687,33.3312 8.96354,30.6646 9.5,27.5 Z"/></g>
<g><path style="opacity:1" fill="#e2e2e2" d="M 106.5,27.5 C 111.068,27.0826 112.568,29.0826 111,33.5C 108.81,36.2486 107.143,35.9153 106,32.5C 105.36,30.735 105.527,29.0683 106.5,27.5 Z"/></g>
<g><path style="opacity:1" fill="#e8e8e8" d="M 49.5,71.5 C 61.5954,71.0475 73.5954,71.8808 85.5,74C 90.9967,76.1252 90.6634,77.4585 84.5,78C 67.5,78.6667 50.5,78.6667 33.5,78C 29.8446,76.5248 30.1779,75.1915 34.5,74C 39.6037,73.002 44.6037,72.1686 49.5,71.5 Z"/></g>
<g><path style="opacity:1" fill="#efefef" d="M 46.5,92.5 C 57.8382,92.3335 69.1716,92.5001 80.5,93C 83.0082,93.115 85.0082,94.115 86.5,96C 86.3552,96.772 86.0219,97.4387 85.5,98C 68.8333,98.6667 52.1667,98.6667 35.5,98C 34.1667,97 34.1667,96 35.5,95C 39.2405,93.9859 42.9072,93.1526 46.5,92.5 Z"/></g>
</svg>
