<?xml version="1.0" encoding="UTF-8"?>
<!DOCTYPE svg PUBLIC "-//W3C//DTD SVG 1.1//EN" "http://www.w3.org/Graphics/SVG/1.1/DTD/svg11.dtd">
<svg xmlns="http://www.w3.org/2000/svg" version="1.1" width="120px" height="120px" style="shape-rendering:geometricPrecision; text-rendering:geometricPrecision; image-rendering:optimizeQuality; fill-rule:evenodd; clip-rule:evenodd" xmlns:xlink="http://www.w3.org/1999/xlink">
<g><path style="opacity:1" fill="#010101" d="M 26.5,13.5 C 31.1785,13.3342 35.8452,13.5008 40.5,14C 44.1667,21.3333 47.8333,21.3333 51.5,14C 57.8333,13.3333 64.1667,13.3333 70.5,14C 74.1667,21.3333 77.8333,21.3333 81.5,14C 96.9464,10.4465 102.446,16.2798 98,31.5C 94.3679,36.1337 90.3679,40.467 86,44.5C 85.3333,55.5 85.3333,66.5 86,77.5C 91,82.5 96,87.5 101,92.5C 101.808,94.4233 102.308,96.4233 102.5,98.5C 101.79,101.799 101.457,105.133 101.5,108.5C 74.5,108.5 47.5,108.5 20.5,108.5C 20.6355,105.449 20.3022,102.449 19.5,99.5C 22.9233,91.2321 28.4233,84.5654 36,79.5C 36.6667,67.8333 36.6667,56.1667 36,44.5C 32.3333,40.8333 28.6667,37.1667 25,33.5C 22.9053,27.8086 22.572,22.1419 24,16.5C 24.6979,15.3094 25.5313,14.3094 26.5,13.5 Z"/></g>
<g><path style="opacity:1" fill="#ededed" d="M 43.5,44.5 C 54.8382,44.3335 66.1716,44.5001 77.5,45C 78.3081,45.3076 78.9747,45.8076 79.5,46.5C 77.9412,48.1307 75.9412,48.964 73.5,49C 64.1667,49.6667 54.8333,49.6667 45.5,49C 42.715,48.2742 42.0484,46.7742 43.5,44.5 Z"/></g>
<g><path style="opacity:1" fill="#ededed" d="M 43.5,74.5 C 54.8382,74.3335 66.1716,74.5001 77.5,75C 78.3081,75.3076 78.9747,75.8076 79.5,76.5C 77.9412,78.1307 75.9412,78.964 73.5,79C 64.1667,79.6667 54.8333,79.6667 45.5,79C 42.715,78.2742 42.0484,76.7742 43.5,74.5 Z"/></g>
</svg>
